<?xml version="1.0" encoding="UTF-8"?>
<svg width="800" height="600" viewBox="0 0 800 600" fill="none" xmlns="http://www.w3.org/2000/svg">
  <!-- Background -->
  <rect width="800" height="600" fill="#111111"/>
  
  <!-- Laptop Shape -->
  <rect x="200" y="150" width="400" height="250" rx="10" fill="#222222" stroke="#007fff" stroke-width="2"/>
  <path d="M150 400 L650 400 L700 500 L100 500 Z" fill="#222222" stroke="#007fff" stroke-width="2"/>
  
  <!-- Screen Content -->
  <rect x="220" y="170" width="360" height="210" fill="#0a0a0a"/>
  
  <!-- Power BI Logo -->
  <rect x="250" y="190" width="40" height="40" fill="#40a9ff" rx="5"/>
  <text x="300" y="220" fill="#ffffff" font-family="Arial" font-size="20" font-weight="bold">Power BI</text>
  
  <!-- Dashboard Elements -->
  <rect x="250" y="250" width="100" height="60" rx="5" fill="#007fff" opacity="0.8"/>
  <rect x="370" y="250" width="100" height="60" rx="5" fill="#40a9ff" opacity="0.8"/>
  <rect x="490" y="250" width="60" height="60" rx="5" fill="#0050b3" opacity="0.8"/>
  
  <!-- Learning Elements -->
  <circle cx="280" y="350" r="15" fill="#007fff"/>
  <rect x="310" y="340" width="240" height="5" fill="#333333"/>
  <rect x="310" y="355" width="180" height="5" fill="#333333"/>
  
  <!-- Decorative Elements -->
  <circle cx="700" cy="100" r="40" fill="#007fff" opacity="0.1"/>
  <circle cx="100" cy="500" r="60" fill="#40a9ff" opacity="0.1"/>
  
  <!-- Text Elements -->
  <text x="400" y="550" fill="#ffffff" font-family="Arial" font-size="24" text-anchor="middle">Master Power BI</text>
</svg> 