<?xml version="1.0" encoding="UTF-8"?>
<svg width="96" height="96" viewBox="0 0 96 96" fill="none" xmlns="http://www.w3.org/2000/svg">
  <path d="M0 12C0 5.37258 5.37258 0 12 0H84C90.6274 0 96 5.37258 96 12V84C96 90.6274 90.6274 96 84 96H12C5.37258 96 0 90.6274 0 84V12Z" fill="#F2C811"/>
  <path d="M36 28H26C24.8954 28 24 28.8954 24 30V66C24 67.1046 24.8954 68 26 68H36C37.1046 68 38 67.1046 38 66V30C38 28.8954 37.1046 28 36 28Z" fill="white"/>
  <path d="M56 40H46C44.8954 40 44 40.8954 44 42V66C44 67.1046 44.8954 68 46 68H56C57.1046 68 58 67.1046 58 66V42C58 40.8954 57.1046 40 56 40Z" fill="white"/>
  <path d="M76 48H66C64.8954 48 64 48.8954 64 50V66C64 67.1046 64.8954 68 66 68H76C77.1046 68 78 67.1046 78 66V50C78 48.8954 77.1046 48 76 48Z" fill="white"/>
</svg> 