<?xml version="1.0" encoding="UTF-8"?>
<svg width="96" height="96" viewBox="0 0 96 96" fill="none" xmlns="http://www.w3.org/2000/svg">
  <path d="M0 12C0 5.37258 5.37258 0 12 0H84C90.6274 0 96 5.37258 96 12V84C96 90.6274 90.6274 96 84 96H12C5.37258 96 0 90.6274 0 84V12Z" fill="#3776AB"/>
  <path d="M47.5 20C38.3873 20 31 27.3873 31 36.5V44H39.5V36.5C39.5 32.0817 43.0817 28.5 47.5 28.5C51.9183 28.5 55.5 32.0817 55.5 36.5V44H64V36.5C64 27.3873 56.6127 20 47.5 20Z" fill="#FFD43B"/>
  <path d="M47.5 76C56.6127 76 64 68.6127 64 59.5V52H55.5V59.5C55.5 63.9183 51.9183 67.5 47.5 67.5C43.0817 67.5 39.5 63.9183 39.5 59.5V52H31V59.5C31 68.6127 38.3873 76 47.5 76Z" fill="#FFD43B"/>
  <circle cx="47.5" cy="48" r="4.5" fill="white"/>
</svg> 