<?xml version="1.0" encoding="UTF-8"?>
<svg width="96" height="96" viewBox="0 0 96 96" fill="none" xmlns="http://www.w3.org/2000/svg">
  <path d="M0 12C0 5.37258 5.37258 0 12 0H84C90.6274 0 96 5.37258 96 12V84C96 90.6274 90.6274 96 84 96H12C5.37258 96 0 90.6274 0 84V12Z" fill="#00758F"/>
  <path d="M48 24C34.7452 24 24 29.3726 24 36V60C24 66.6274 34.7452 72 48 72C61.2548 72 72 66.6274 72 60V36C72 29.3726 61.2548 24 48 24Z" stroke="white" stroke-width="4"/>
  <path d="M72 44C72 50.6274 61.2548 56 48 56C34.7452 56 24 50.6274 24 44" stroke="white" stroke-width="4"/>
  <path d="M72 52C72 58.6274 61.2548 64 48 64C34.7452 64 24 58.6274 24 52" stroke="white" stroke-width="4"/>
</svg> 